<svg xmlns="http://www.w3.org/2000/svg" xmlns:xlink="http://www.w3.org/1999/xlink" zoomAndPan="magnify" preserveAspectRatio="xMidYMid meet" version="1.0" viewBox="112.5 123.82 150 127.5"><defs><clipPath id="87d61e3d34"><path d="M 112.5 123.816406 L 262.5 123.816406 L 262.5 251.316406 L 112.5 251.316406 Z M 112.5 123.816406 " clip-rule="nonzero"/></clipPath><clipPath id="e6c08e6402"><path d="M 262.496094 180.484375 L 262.496094 177.503906 L 259.535156 177.179688 C 258.742188 177.097656 250.207031 176.242188 239.160156 177.902344 L 239.160156 156.15625 L 235.410156 156.636719 C 229.21875 157.441406 223.472656 158.628906 218.167969 160.164062 C 212.394531 147.90625 202.855469 136.328125 189.589844 125.570312 L 187.5 123.867188 L 185.410156 125.570312 C 172.144531 136.328125 162.605469 147.90625 156.832031 160.164062 C 151.527344 158.628906 145.78125 157.441406 139.589844 156.636719 L 135.839844 156.15625 L 135.839844 177.902344 C 124.789062 176.242188 116.257812 177.097656 115.464844 177.179688 L 112.503906 177.503906 L 112.503906 180.484375 C 112.503906 204.945312 119.066406 223.5625 132.027344 235.835938 C 142.75 245.988281 157.496094 251.285156 174.898438 251.285156 C 176.265625 251.285156 177.660156 251.242188 179.066406 251.183594 L 183.835938 251.183594 L 182.890625 247.085938 C 180.535156 236.875 176.632812 212.207031 187.5 192.105469 C 198.367188 212.207031 194.464844 236.875 192.109375 247.085938 L 191.164062 251.183594 L 195.933594 251.183594 C 197.339844 251.242188 198.734375 251.285156 200.101562 251.285156 C 217.503906 251.285156 232.253906 245.988281 242.972656 235.835938 C 255.933594 223.5625 262.496094 204.945312 262.496094 180.484375 Z M 232.527344 163.769531 L 232.527344 179.171875 C 229.839844 179.796875 227.074219 180.574219 224.296875 181.5625 C 223.707031 176.394531 222.515625 171.3125 220.722656 166.339844 C 224.417969 165.304688 228.347656 164.433594 232.527344 163.769531 Z M 142.472656 163.769531 C 146.648438 164.433594 150.582031 165.308594 154.277344 166.34375 C 152.488281 171.316406 151.292969 176.394531 150.703125 181.566406 C 147.925781 180.578125 145.160156 179.800781 142.472656 179.175781 Z M 136.585938 231.007812 C 125.542969 220.558594 119.699219 204.621094 119.175781 183.613281 C 122.617188 183.507812 128.726562 183.5625 135.839844 184.75 L 135.839844 204.46875 C 135.839844 219.550781 150.765625 234.625 165.464844 244.027344 C 155.753906 242.75 145.214844 239.191406 136.585938 231.007812 Z M 142.472656 204.472656 L 142.472656 186.148438 C 145.042969 186.8125 147.671875 187.632812 150.289062 188.652344 C 150.160156 208.597656 158.765625 225.621094 166.324219 236.683594 C 153.351562 227.695312 142.472656 215.003906 142.472656 204.472656 Z M 174.332031 236.375 C 167.285156 226.871094 157.816406 210.695312 156.980469 191.730469 C 163.789062 195.398438 170.179688 200.695312 175.003906 208.296875 C 173.132812 218.464844 173.414062 228.398438 174.332031 236.375 Z M 177.101562 199.800781 C 171.339844 192.605469 164.324219 187.632812 157.113281 184.210938 C 157.550781 178.832031 158.714844 173.554688 160.601562 168.382812 C 170.703125 172.101562 178.683594 177.414062 184.460938 184.300781 C 181.15625 189.234375 178.777344 194.488281 177.101562 199.800781 Z M 187.5 177.730469 C 181.265625 171.125 173.140625 165.960938 163.207031 162.265625 C 168.273438 151.808594 176.382812 141.847656 187.5 132.453125 C 198.617188 141.847656 206.726562 151.808594 211.792969 162.265625 C 201.859375 165.960938 193.734375 171.121094 187.5 177.730469 Z M 190.535156 184.300781 C 196.3125 177.414062 204.296875 172.101562 214.394531 168.382812 C 216.285156 173.554688 217.445312 178.832031 217.882812 184.210938 C 210.671875 187.632812 203.65625 192.605469 197.894531 199.800781 C 196.222656 194.488281 193.84375 189.234375 190.535156 184.300781 Z M 199.996094 208.296875 C 204.820312 200.695312 211.210938 195.398438 218.019531 191.730469 C 217.183594 210.695312 207.714844 226.871094 200.667969 236.375 C 201.585938 228.398438 201.867188 218.464844 199.996094 208.296875 Z M 224.710938 188.652344 C 227.332031 187.632812 229.957031 186.8125 232.527344 186.148438 L 232.527344 204.472656 C 232.527344 215.003906 221.648438 227.695312 208.675781 236.683594 C 216.238281 225.621094 224.839844 208.597656 224.710938 188.652344 Z M 238.414062 231.007812 C 229.785156 239.191406 219.242188 242.753906 209.535156 244.027344 C 224.234375 234.625 239.160156 219.550781 239.160156 204.46875 L 239.160156 184.75 C 246.273438 183.5625 252.382812 183.503906 255.824219 183.613281 C 255.300781 204.621094 249.457031 220.558594 238.414062 231.007812 Z M 238.414062 231.007812 " clip-rule="nonzero"/></clipPath><linearGradient x1="3025" gradientTransform="matrix(0.274123, 0, 0, 0.274425, -641.72142, -558.800457)" y1="2487.629863" x2="3025" gradientUnits="userSpaceOnUse" y2="2951.929857" id="19e308cb06"><stop stop-opacity="1" stop-color="rgb(85.899353%, 74.899292%, 54.499817%)" offset="0"/><stop stop-opacity="1" stop-color="rgb(85.899353%, 74.899292%, 54.499817%)" offset="0.125"/><stop stop-opacity="1" stop-color="rgb(85.768127%, 74.771118%, 54.423523%)" offset="0.1875"/><stop stop-opacity="1" stop-color="rgb(85.494995%, 74.504089%, 54.264832%)" offset="0.21875"/><stop stop-opacity="1" stop-color="rgb(85.211182%, 74.226379%, 54.101562%)" offset="0.25"/><stop stop-opacity="1" stop-color="rgb(84.927368%, 73.950195%, 53.938293%)" offset="0.28125"/><stop stop-opacity="1" stop-color="rgb(84.645081%, 73.672485%, 53.775024%)" offset="0.3125"/><stop stop-opacity="1" stop-color="rgb(84.361267%, 73.396301%, 53.611755%)" offset="0.34375"/><stop stop-opacity="1" stop-color="rgb(84.077454%, 73.118591%, 53.448486%)" offset="0.375"/><stop stop-opacity="1" stop-color="rgb(83.79364%, 72.842407%, 53.285217%)" offset="0.40625"/><stop stop-opacity="1" stop-color="rgb(83.511353%, 72.564697%, 53.121948%)" offset="0.4375"/><stop stop-opacity="1" stop-color="rgb(83.227539%, 72.288513%, 52.958679%)" offset="0.46875"/><stop stop-opacity="1" stop-color="rgb(82.943726%, 72.010803%, 52.79541%)" offset="0.5"/><stop stop-opacity="1" stop-color="rgb(82.661438%, 71.734619%, 52.632141%)" offset="0.53125"/><stop stop-opacity="1" stop-color="rgb(82.377625%, 71.456909%, 52.468872%)" offset="0.5625"/><stop stop-opacity="1" stop-color="rgb(82.093811%, 71.180725%, 52.305603%)" offset="0.59375"/><stop stop-opacity="1" stop-color="rgb(81.811523%, 70.903015%, 52.142334%)" offset="0.625"/><stop stop-opacity="1" stop-color="rgb(81.52771%, 70.626831%, 51.979065%)" offset="0.65625"/><stop stop-opacity="1" stop-color="rgb(81.243896%, 70.349121%, 51.815796%)" offset="0.6875"/><stop stop-opacity="1" stop-color="rgb(80.961609%, 70.072937%, 51.652527%)" offset="0.71875"/><stop stop-opacity="1" stop-color="rgb(80.677795%, 69.795227%, 51.489258%)" offset="0.75"/><stop stop-opacity="1" stop-color="rgb(80.393982%, 69.519043%, 51.325989%)" offset="0.78125"/><stop stop-opacity="1" stop-color="rgb(80.111694%, 69.241333%, 51.16272%)" offset="0.8125"/><stop stop-opacity="1" stop-color="rgb(79.827881%, 68.965149%, 50.999451%)" offset="0.84375"/><stop stop-opacity="1" stop-color="rgb(79.544067%, 68.687439%, 50.836182%)" offset="0.875"/><stop stop-opacity="1" stop-color="rgb(79.26178%, 68.411255%, 50.672913%)" offset="0.90625"/><stop stop-opacity="1" stop-color="rgb(78.977966%, 68.133545%, 50.509644%)" offset="0.9375"/><stop stop-opacity="1" stop-color="rgb(78.694153%, 67.857361%, 50.346375%)" offset="0.96875"/><stop stop-opacity="1" stop-color="rgb(78.410339%, 67.579651%, 50.183105%)" offset="1"/></linearGradient></defs><g clip-path="url(#87d61e3d34)"><g clip-path="url(#e6c08e6402)"><path fill="url(#19e308cb06)" d="M 112.503906 123.867188 L 112.503906 251.285156 L 262.496094 251.285156 L 262.496094 123.867188 Z M 112.503906 123.867188 " fill-rule="nonzero"/></g></g></svg>