<svg xmlns="http://www.w3.org/2000/svg" xmlns:xlink="http://www.w3.org/1999/xlink" width="500" zoomAndPan="magnify" viewBox="0 0 375 374.999991" height="500" preserveAspectRatio="xMidYMid meet" version="1.0"><defs><g/><clipPath id="78087ec058"><path d="M 43 165 L 57 165 L 57 193 L 43 193 Z M 43 165 " clip-rule="nonzero"/></clipPath><clipPath id="f2c4c7fd3d"><path d="M 43.957031 166.132812 L 56.066406 165.863281 L 56.664062 192.933594 L 44.554688 193.199219 Z M 43.957031 166.132812 " clip-rule="nonzero"/></clipPath><clipPath id="38afd50570"><path d="M 67.675781 148.363281 L 43.457031 148.898438 L 44.433594 193.0625 L 68.652344 192.527344 Z M 67.675781 148.363281 " clip-rule="nonzero"/></clipPath><clipPath id="24d672cd52"><path d="M 67.675781 148.363281 L 43.457031 148.898438 L 44.433594 193.0625 L 68.652344 192.527344 Z M 67.675781 148.363281 " clip-rule="nonzero"/></clipPath><clipPath id="66ff32336b"><path d="M 43 165 L 57 165 L 57 167 L 43 167 Z M 43 165 " clip-rule="nonzero"/></clipPath><clipPath id="1284443908"><path d="M 43.957031 166.132812 L 56.066406 165.863281 L 56.664062 192.933594 L 44.554688 193.199219 Z M 43.957031 166.132812 " clip-rule="nonzero"/></clipPath><clipPath id="535fbe562a"><path d="M 67.675781 148.363281 L 43.457031 148.898438 L 44.433594 193.0625 L 68.652344 192.527344 Z M 67.675781 148.363281 " clip-rule="nonzero"/></clipPath><clipPath id="3a1e68e837"><path d="M 67.675781 148.363281 L 43.457031 148.898438 L 44.433594 193.0625 L 68.652344 192.527344 Z M 67.675781 148.363281 " clip-rule="nonzero"/></clipPath></defs><g fill="#f6e7d8" fill-opacity="1"><g transform="translate(16.040956, 205.619601)"><g><path d="M 30.53125 -17.296875 L 10.625 -17.296875 L 3.78125 0 L 0 0 L 19.703125 -49.203125 L 21.890625 -49.203125 L 41.1875 0 L 37.34375 0 Z M 11.859375 -20.375 L 29.390625 -20.375 L 22.71875 -38.046875 C 22.164062 -39.429688 21.5 -41.351562 20.71875 -43.8125 C 20.113281 -41.664062 19.453125 -39.71875 18.734375 -37.96875 Z M 11.859375 -20.375 "/></g></g></g><g fill="#f6e7d8" fill-opacity="1"><g transform="translate(53.900703, 205.619601)"><g><path d="M 44.140625 -24.96875 C 44.140625 -16.75 41.984375 -10.53125 37.671875 -6.3125 C 33.359375 -2.101562 27.023438 0 18.671875 0 L 6.9375 0 L 6.9375 -49 L 20.171875 -49 C 27.992188 -49 33.941406 -46.953125 38.015625 -42.859375 C 42.097656 -38.773438 44.140625 -32.8125 44.140625 -24.96875 Z M 40.421875 -24.828125 C 40.421875 -31.847656 38.640625 -37.128906 35.078125 -40.671875 C 31.515625 -44.210938 26.28125 -45.984375 19.375 -45.984375 L 10.359375 -45.984375 L 10.359375 -3.015625 L 18.46875 -3.015625 C 33.101562 -3.015625 40.421875 -10.285156 40.421875 -24.828125 Z M 40.421875 -24.828125 "/></g></g></g><g clip-path="url(#78087ec058)"><g clip-path="url(#f2c4c7fd3d)"><g clip-path="url(#38afd50570)"><g clip-path="url(#24d672cd52)"><path fill="#f14902" d="M 43.695312 157.804688 C 43.734375 157.75 43.785156 157.71875 43.855469 157.71875 L 67.664062 157.191406 C 67.730469 157.191406 67.785156 157.21875 67.828125 157.269531 C 67.867188 157.324219 67.875 157.382812 67.855469 157.449219 L 56.722656 192.613281 C 56.714844 192.632812 56.707031 192.648438 56.695312 192.664062 L 56.691406 192.671875 C 56.679688 192.683594 56.667969 192.695312 56.65625 192.703125 L 56.652344 192.710938 C 56.636719 192.71875 56.621094 192.730469 56.605469 192.734375 L 56.59375 192.734375 C 56.558594 192.75 56.519531 192.75 56.484375 192.738281 L 56.472656 192.738281 C 56.457031 192.734375 56.441406 192.726562 56.425781 192.714844 L 56.417969 192.710938 C 56.40625 192.699219 56.394531 192.691406 56.382812 192.675781 L 56.378906 192.667969 C 56.367188 192.65625 56.359375 192.640625 56.351562 192.625 L 43.675781 157.980469 C 43.652344 157.917969 43.65625 157.859375 43.695312 157.804688 Z M 55.964844 157.84375 L 56.703125 191.363281 L 67.398438 157.589844 Z M 55.964844 157.84375 " fill-opacity="1" fill-rule="nonzero"/></g></g></g></g><g clip-path="url(#66ff32336b)"><g clip-path="url(#1284443908)"><g clip-path="url(#535fbe562a)"><g clip-path="url(#3a1e68e837)"><path fill="#1c191a" d="M 43.859375 157.914062 L 55.957031 166.425781 L 67.667969 157.390625 L 55.570312 148.875 Z M 43.859375 157.914062 " fill-opacity="1" fill-rule="nonzero"/><path fill="#f14902" d="M 55.960938 166.621094 C 56.003906 166.621094 56.042969 166.609375 56.078125 166.582031 L 67.789062 157.542969 C 67.839844 157.503906 67.867188 157.449219 67.863281 157.382812 C 67.863281 157.320312 67.835938 157.269531 67.78125 157.230469 L 55.683594 148.714844 C 55.605469 148.660156 55.527344 148.660156 55.449219 148.722656 L 43.738281 157.761719 C 43.6875 157.800781 43.660156 157.855469 43.660156 157.917969 C 43.664062 157.984375 43.691406 158.039062 43.746094 158.074219 L 55.84375 166.585938 C 55.878906 166.613281 55.917969 166.625 55.960938 166.621094 Z M 67.339844 157.394531 L 55.953125 166.183594 L 44.191406 157.90625 L 55.574219 149.121094 Z M 67.339844 157.394531 " fill-opacity="1" fill-rule="nonzero"/></g></g></g></g><path stroke-linecap="butt" transform="matrix(0.000000000000000044, 0.715915, -0.712503, 0.000000000000000044, 59.20982, 163.808192)" fill="none" stroke-linejoin="miter" d="M 0.000560551 0.497333 L 58.732192 0.497333 " stroke="#f6e7d8" stroke-width="1" stroke-opacity="1" stroke-miterlimit="4"/><path stroke-linecap="butt" transform="matrix(0.251032, 0.662122, -0.666227, 0.252589, 43.172802, 163.681924)" fill="none" stroke-linejoin="miter" d="M 0.000573731 0.499984 L 63.404399 0.497634 " stroke="#f6e7d8" stroke-width="1" stroke-opacity="1" stroke-miterlimit="4"/><path stroke-linecap="butt" transform="matrix(0.711997, 0, 0, 0.712503, 43.166678, 163.803548)" fill="none" stroke-linejoin="miter" d="M 0.00181333 0.5005 L 22.023943 0.5005 " stroke="#f6e7d8" stroke-width="1" stroke-opacity="1" stroke-miterlimit="4"/><path stroke-linecap="butt" transform="matrix(0.000000000000000044, 0.715915, -0.712503, 0.000000000000000044, 57.831308, 156.902334)" fill="none" stroke-linejoin="miter" d="M 0.0000129251 0.497886 L 58.731645 0.497886 " stroke="#f6e7d8" stroke-width="1" stroke-opacity="1" stroke-miterlimit="4"/><path stroke-linecap="butt" transform="matrix(0.251032, 0.662122, -0.666227, 0.252589, 41.794286, 156.776063)" fill="none" stroke-linejoin="miter" d="M -0.000135821 0.500301 L 63.403689 0.497952 " stroke="#f6e7d8" stroke-width="1" stroke-opacity="1" stroke-miterlimit="4"/><path stroke-linecap="butt" transform="matrix(0.711997, 0, 0, 0.712503, 41.788156, 156.897705)" fill="none" stroke-linejoin="miter" d="M 0.00127296 0.49993 L 22.023403 0.49993 " stroke="#f6e7d8" stroke-width="1" stroke-opacity="1" stroke-miterlimit="4"/><g fill="#f14902" fill-opacity="1"><g transform="translate(28.813478, 220.21421)"><g><path d="M 3.835938 0 L 4.441406 0 L 2.449219 -4.558594 L 2.195312 -4.558594 L 0.195312 0 L 0.378906 0 L 0.96875 -1.347656 L 3.25 -1.347656 Z M 1.023438 -1.476562 L 2.109375 -3.960938 L 3.191406 -1.476562 Z M 1.023438 -1.476562 "/></g></g></g><g fill="#f14902" fill-opacity="1"><g transform="translate(34.426584, 220.21421)"><g><path d="M 4.21875 -4.558594 L 4.21875 -0.78125 L 1.113281 -4.558594 L 0.625 -4.558594 L 0.625 0 L 0.78125 0 L 0.78125 -4.089844 L 4.15625 0 L 4.375 0 L 4.375 -4.558594 Z M 4.21875 -4.558594 "/></g></g></g><g fill="#f14902" fill-opacity="1"><g transform="translate(40.3978, 220.21421)"><g><path d="M 2.566406 0.0664062 C 3.691406 0.0664062 4.375 -0.632812 4.375 -1.691406 L 4.375 -4.558594 L 4.21875 -4.558594 L 4.21875 -1.699219 C 4.21875 -0.753906 3.640625 -0.144531 2.710938 -0.144531 C 1.777344 -0.144531 1.160156 -0.753906 1.160156 -1.699219 L 1.160156 -4.558594 L 0.578125 -4.558594 L 0.578125 -1.804688 C 0.578125 -0.675781 1.398438 0.0664062 2.566406 0.0664062 Z M 2.566406 0.0664062 "/></g></g></g><g fill="#f14902" fill-opacity="1"><g transform="translate(46.329949, 220.21421)"><g><path d="M 3.984375 -0.496094 L 3.398438 -1.492188 C 3.269531 -1.71875 3.015625 -1.882812 2.703125 -1.972656 C 3.503906 -2.070312 4.070312 -2.585938 4.070312 -3.261719 C 4.070312 -4.003906 3.359375 -4.558594 2.417969 -4.558594 L 0.625 -4.558594 L 0.625 0 L 1.203125 0 L 1.203125 -1.953125 L 2.3125 -1.953125 C 2.480469 -1.875 2.617188 -1.738281 2.710938 -1.589844 L 3.398438 -0.378906 C 3.476562 -0.242188 3.589844 -0.105469 3.738281 0 L 4.402344 0 C 4.265625 -0.0976562 4.097656 -0.292969 3.984375 -0.496094 Z M 1.203125 -4.429688 L 2.304688 -4.429688 C 3.003906 -4.429688 3.464844 -3.964844 3.464844 -3.257812 C 3.464844 -2.546875 3.003906 -2.082031 2.304688 -2.082031 L 1.203125 -2.082031 Z M 1.203125 -4.429688 "/></g></g></g><g fill="#f14902" fill-opacity="1"><g transform="translate(51.760746, 220.21421)"><g><path d="M 3.835938 0 L 4.441406 0 L 2.449219 -4.558594 L 2.195312 -4.558594 L 0.195312 0 L 0.378906 0 L 0.96875 -1.347656 L 3.25 -1.347656 Z M 1.023438 -1.476562 L 2.109375 -3.960938 L 3.191406 -1.476562 Z M 1.023438 -1.476562 "/></g></g></g><g fill="#f14902" fill-opacity="1"><g transform="translate(57.373852, 220.21421)"><g><path d="M 4.070312 -1.925781 L 4.070312 -0.691406 C 3.894531 -0.300781 3.433594 -0.0664062 2.8125 -0.0664062 C 1.667969 -0.0664062 0.929688 -0.9375 0.929688 -2.261719 C 0.929688 -3.613281 1.6875 -4.46875 2.925781 -4.46875 C 3.5625 -4.46875 4.050781 -4.238281 4.226562 -3.847656 C 4.207031 -3.855469 4.195312 -3.855469 4.175781 -3.855469 C 3.964844 -3.855469 3.816406 -3.710938 3.816406 -3.511719 C 3.816406 -3.308594 3.964844 -3.164062 4.175781 -3.164062 C 4.363281 -3.164062 4.507812 -3.308594 4.507812 -3.511719 C 4.507812 -4.148438 3.757812 -4.625 2.78125 -4.625 C 1.359375 -4.625 0.324219 -3.613281 0.324219 -2.28125 C 0.324219 -0.945312 1.375 0.0664062 2.75 0.0664062 C 3.386719 0.0664062 3.933594 -0.144531 4.199219 -0.460938 L 4.570312 0 L 4.636719 0 L 4.636719 -1.925781 Z M 4.070312 -1.925781 "/></g></g></g><g fill="#f14902" fill-opacity="1"><g transform="translate(63.494822, 220.21421)"><g/></g></g><g fill="#f14902" fill-opacity="1"><g transform="translate(66.223518, 220.21421)"><g><path d="M 2.320312 -4.558594 L 0.625 -4.558594 L 0.625 0 L 2.320312 0 C 3.710938 0 4.753906 -0.984375 4.753906 -2.28125 C 4.753906 -3.574219 3.710938 -4.558594 2.320312 -4.558594 Z M 2.234375 -0.128906 L 1.203125 -0.128906 L 1.203125 -4.429688 L 2.234375 -4.429688 C 3.386719 -4.429688 4.148438 -3.574219 4.148438 -2.28125 C 4.148438 -0.984375 3.386719 -0.128906 2.234375 -0.128906 Z M 2.234375 -0.128906 "/></g></g></g><g fill="#f14902" fill-opacity="1"><g transform="translate(72.279379, 220.21421)"><g><path d="M 3.835938 0 L 4.441406 0 L 2.449219 -4.558594 L 2.195312 -4.558594 L 0.195312 0 L 0.378906 0 L 0.96875 -1.347656 L 3.25 -1.347656 Z M 1.023438 -1.476562 L 2.109375 -3.960938 L 3.191406 -1.476562 Z M 1.023438 -1.476562 "/></g></g></g><g fill="#f14902" fill-opacity="1"><g transform="translate(77.892488, 220.21421)"><g><path d="M 2.203125 -2.527344 C 1.554688 -2.78125 0.90625 -3.046875 0.90625 -3.609375 C 0.90625 -4.101562 1.414062 -4.480469 2.089844 -4.480469 C 2.613281 -4.480469 3.035156 -4.273438 3.210938 -3.964844 L 3.183594 -3.964844 C 2.988281 -3.964844 2.847656 -3.828125 2.847656 -3.640625 C 2.847656 -3.453125 2.988281 -3.320312 3.183594 -3.320312 C 3.359375 -3.320312 3.496094 -3.453125 3.496094 -3.640625 C 3.496094 -4.199219 2.859375 -4.625 2.03125 -4.625 C 1.125 -4.625 0.457031 -4.117188 0.457031 -3.394531 C 0.457031 -2.605469 1.25 -2.285156 1.90625 -2.019531 C 2.605469 -1.746094 3.210938 -1.492188 3.210938 -0.945312 C 3.210938 -0.4375 2.683594 -0.078125 1.941406 -0.078125 C 1.335938 -0.078125 0.832031 -0.3125 0.644531 -0.664062 L 0.691406 -0.664062 C 0.867188 -0.664062 1.003906 -0.800781 1.003906 -0.988281 C 1.003906 -1.179688 0.867188 -1.308594 0.691406 -1.308594 C 0.496094 -1.308594 0.351562 -1.179688 0.351562 -0.988281 C 0.351562 -0.390625 1.085938 0.0664062 2.019531 0.0664062 C 2.984375 0.0664062 3.671875 -0.421875 3.671875 -1.183594 C 3.671875 -1.960938 2.957031 -2.242188 2.203125 -2.527344 Z M 2.203125 -2.527344 "/></g></g></g></svg>